<svg width="24" height="24" viewBox="0 0 24 24" fill="none" xmlns="http://www.w3.org/2000/svg">
<g clip-path="url(#clip0_1145_113)">
<path d="M20.5 24H3.5C2.673 24 2 23.327 2 22.5V12.5C2 12.3674 2.05268 12.2402 2.14645 12.1464C2.24021 12.0527 2.36739 12 2.5 12H21.5C21.6326 12 21.7598 12.0527 21.8536 12.1464C21.9473 12.2402 22 12.3674 22 12.5V22.5C22 23.327 21.327 24 20.5 24ZM3 13V22.5C3 22.775 3.225 23 3.5 23H20.5C20.775 23 21 22.775 21 22.5V13H3Z" fill="#999999"/>
<path d="M22.5 13H1.5C0.673 13 0 12.327 0 11.5V8.5C0 7.673 0.673 7 1.5 7H22.5C23.327 7 24 7.673 24 8.5V11.5C24 12.327 23.327 13 22.5 13ZM1.5 8C1.225 8 1 8.225 1 8.5V11.5C1 11.775 1.225 12 1.5 12H22.5C22.775 12 23 11.775 23 11.5V8.5C23 8.225 22.775 8 22.5 8H1.5Z" fill="#999999"/>
<path d="M11.9999 8C11.9282 8.00023 11.8572 7.98488 11.7919 7.95501C11.7267 7.92514 11.6687 7.88147 11.6219 7.827C11.5749 7.77319 11.5401 7.70984 11.5199 7.64131C11.4997 7.57279 11.4946 7.5007 11.5049 7.43C11.5159 7.355 12.6339 0 18.4999 0C21.0839 0 22.0009 1.396 22.0009 2.591C22.0009 4.837 18.8979 8 11.9999 8ZM18.4999 1C14.3879 1 12.9859 5.385 12.6109 6.99C18.0899 6.82 21.0009 4.374 21.0009 2.591C21.0009 2.147 20.8139 1.781 20.4469 1.506C20.0069 1.175 19.3329 1 18.4999 1Z" fill="#999999"/>
<path d="M12.001 8C5.103 8 2 4.837 2 2.591C2 1.837 2.339 1.167 2.953 0.706C3.568 0.244 4.449 0 5.501 0C11.367 0 12.485 7.355 12.496 7.43C12.5064 7.5007 12.5013 7.5728 12.4811 7.64134C12.4609 7.70988 12.4261 7.77323 12.379 7.827C12.3323 7.88147 12.2743 7.92514 12.209 7.95501C12.1437 7.98488 12.0728 8.00023 12.001 8ZM5.501 1C3.958 1 3 1.609 3 2.591C3 4.375 5.913 6.821 11.395 6.991C11.032 5.376 9.665 1 5.501 1Z" fill="#999999"/>
<path d="M12 24C11.8674 24 11.7402 23.9473 11.6464 23.8536C11.5527 23.7598 11.5 23.6326 11.5 23.5V7.5C11.5 7.36739 11.5527 7.24021 11.6464 7.14645C11.7402 7.05268 11.8674 7 12 7C12.1326 7 12.2598 7.05268 12.3535 7.14645C12.4473 7.24021 12.5 7.36739 12.5 7.5V23.5C12.5 23.6326 12.4473 23.7598 12.3535 23.8536C12.2598 23.9473 12.1326 24 12 24Z" fill="#999999"/>
</g>
<defs>
<clipPath id="clip0_1145_113">
<rect width="24" height="24" fill="white"/>
</clipPath>
</defs>
</svg>
