<svg width="24" height="24" viewBox="0 0 24 24" fill="none" xmlns="http://www.w3.org/2000/svg">
<g clip-path="url(#clip0_1171_97)">
<path d="M2 14.5H11.25V24H3.75C2.79 24 2 23.21 2 22.25V14.5ZM22 14.5V22.25C22 23.21 21.21 24 20.25 24H12.75V14.5H22ZM0 8.75V11.25C0 12.21 0.79 13 1.75 13H11.25V7H1.75C0.79 7 0 7.79 0 8.75ZM22.25 7H12.75V13H22.25C23.21 13 24 12.21 24 11.25V8.75C24 7.79 23.21 7 22.25 7Z" fill="#FF8000"/>
<path d="M12 8.04396C11.8923 8.04364 11.786 8.0202 11.6881 7.97521C11.5903 7.93022 11.5032 7.86475 11.4329 7.78321C11.3625 7.70166 11.3105 7.60596 11.2803 7.50258C11.2502 7.39919 11.2426 7.29054 11.258 7.18396C11.628 4.68396 13.581 -0.0450439 18.329 -0.0450439C21.039 -0.0440439 22 1.41996 22 2.67396C22 4.90296 18.897 8.04396 12 8.04396ZM18.329 1.45596C14.747 1.45596 13.387 4.86096 12.936 6.52196C15.762 6.38996 17.544 5.67496 18.57 5.06596C19.993 4.22096 20.5 3.27596 20.5 2.67296C20.5 1.77496 19.379 1.45596 18.329 1.45596Z" fill="#FF8000"/>
<path d="M12.001 8.04405C5.10397 8.04405 2.00098 4.90305 2.00098 2.67405C2.00098 1.42005 2.96298 -0.0439453 5.67297 -0.0439453C10.42 -0.0439453 12.373 4.68505 12.743 7.18505C12.7583 7.29156 12.7506 7.40011 12.7203 7.50337C12.6901 7.60663 12.638 7.70221 12.5677 7.78363C12.4974 7.86506 12.4104 7.93044 12.3126 7.97537C12.2148 8.0203 12.1086 8.04372 12.001 8.04405ZM5.67297 1.45605C4.62297 1.45605 3.50097 1.77605 3.50097 2.67405C3.50097 3.95105 5.73397 6.27805 11.064 6.52305C10.614 4.86105 9.25397 1.45605 5.67297 1.45605Z" fill="#FF8000"/>
</g>
<defs>
<clipPath id="clip0_1171_97">
<rect width="24" height="24" fill="white"/>
</clipPath>
</defs>
</svg>
