<svg width="19" height="24" viewBox="0 0 19 24" fill="none" xmlns="http://www.w3.org/2000/svg">
<path d="M17.7808 1.52982L17.7808 1.5298C17.3169 1.06493 16.6973 0.807678 16.0406 0.807678H15.1712H14.6712V1.30768V2.17947C14.6712 2.86527 14.1133 3.42306 13.4296 3.42306H5.59214C4.90843 3.42306 4.35046 2.86527 4.35046 2.17947V1.30768V0.807678H3.85046H2.97819C1.62254 0.807678 0.520364 1.91067 0.518832 3.26647V3.26649L0.500002 20.3536C0.500002 20.3536 0.500002 20.3537 0.500002 20.3537C0.499245 21.0106 0.755307 21.6309 1.21911 22.0958L1.21915 22.0958C1.68308 22.5607 2.30269 22.8179 2.95936 22.8179H16.0218C17.3774 22.8179 18.4796 21.715 18.4811 20.3591L18.5 3.27198C18.5 3.27197 18.5 3.27196 18.5 3.27195C18.5008 2.61505 18.2447 1.99472 17.7808 1.52982ZM4.51095 8.22535L4.51098 8.22532C4.57076 8.16548 4.66736 8.16547 4.72715 8.22528C4.72716 8.22529 4.72717 8.2253 4.72718 8.22532L5.08227 8.58084L5.43602 8.93502L5.78979 8.58086L7.29595 7.07305C7.35583 7.01312 7.45244 7.01325 7.51207 7.07296L7.51213 7.07302C7.57213 7.13308 7.57218 7.2308 7.51212 7.29096C7.51211 7.29096 7.51211 7.29097 7.5121 7.29098L5.54409 9.26113L5.544 9.26121C5.52983 9.2754 5.51299 9.28667 5.49446 9.29435C5.47593 9.30204 5.45606 9.30599 5.436 9.30599C5.41593 9.30599 5.39607 9.30204 5.37754 9.29435C5.359 9.28667 5.34217 9.2754 5.32799 9.26121L5.32793 9.26114L4.51097 8.44322L4.51094 8.4432C4.45092 8.38312 4.45092 8.28543 4.51095 8.22535ZM5.78979 13.2727L7.29598 11.7648C7.29598 11.7648 7.29599 11.7648 7.29599 11.7648C7.35573 11.705 7.45239 11.705 7.51213 11.7648C7.57214 11.8249 7.57218 11.9226 7.5121 11.9828L5.54408 13.953L5.54405 13.953C5.52987 13.9672 5.51302 13.9785 5.49448 13.9862C5.47594 13.9939 5.45607 13.9978 5.436 13.9978C5.41593 13.9978 5.39605 13.9939 5.37751 13.9862C5.35897 13.9785 5.34213 13.9672 5.32794 13.953L5.32793 13.953L4.51097 13.1351L4.51094 13.1351C4.45094 13.075 4.4509 12.9773 4.51098 12.9172C4.57076 12.8573 4.66738 12.8573 4.72717 12.9172C4.72717 12.9172 4.72718 12.9172 4.72718 12.9172L5.08229 13.2727L5.43604 13.6268L5.78979 13.2727ZM5.08229 17.6317L5.43604 17.9858L5.78979 17.6317L7.29598 16.1238C7.29598 16.1238 7.29599 16.1238 7.29599 16.1238C7.35573 16.064 7.45239 16.064 7.51213 16.1238C7.57214 16.1839 7.57218 16.2816 7.5121 16.3418L5.54408 18.312L5.54405 18.312C5.52987 18.3262 5.51303 18.3375 5.49448 18.3452C5.47594 18.3528 5.45607 18.3568 5.436 18.3568C5.41593 18.3568 5.39605 18.3528 5.37751 18.3452C5.35897 18.3375 5.34213 18.3262 5.32795 18.312L5.32793 18.312L4.51097 17.4941L4.51094 17.494C4.45094 17.434 4.4509 17.3363 4.51098 17.2762C4.57076 17.2163 4.66738 17.2163 4.72717 17.2761C4.72717 17.2761 4.72718 17.2762 4.72718 17.2762L5.08229 17.6317ZM9.72205 8.34614H14.3623C14.4463 8.34614 14.5154 8.41449 14.5154 8.49998C14.5154 8.58548 14.4463 8.65383 14.3623 8.65383H9.72205C9.63803 8.65383 9.56894 8.58548 9.56894 8.49998C9.56894 8.41449 9.63803 8.34614 9.72205 8.34614ZM9.72205 12.7051H14.3623C14.4463 12.7051 14.5154 12.7735 14.5154 12.859C14.5154 12.9445 14.4463 13.0128 14.3623 13.0128H9.72205C9.63803 13.0128 9.56894 12.9445 9.56894 12.859C9.56894 12.7735 9.63803 12.7051 9.72205 12.7051ZM9.72205 17.0641H14.381C14.465 17.0641 14.5341 17.1324 14.5341 17.2179C14.5341 17.3034 14.465 17.3718 14.381 17.3718H9.72205C9.63803 17.3718 9.56894 17.3034 9.56894 17.2179C9.56894 17.1324 9.63803 17.0641 9.72205 17.0641Z" stroke="#999999"/>
</svg>
