<svg width="229" height="28" viewBox="0 0 229 28" fill="none" xmlns="http://www.w3.org/2000/svg">
<path d="M15.6836 16.541H5.55859V27H0.285156V1.40625H16.9492V5.67773H5.55859V12.2871H15.6836V16.541ZM25.0352 27H19.9375V0H25.0352V27ZM40.2578 27C40.0234 26.543 39.8535 25.9746 39.748 25.2949C38.5176 26.666 36.918 27.3516 34.9492 27.3516C33.0859 27.3516 31.5391 26.8125 30.3086 25.7344C29.0898 24.6562 28.4805 23.2969 28.4805 21.6562C28.4805 19.6406 29.2246 18.0938 30.7129 17.0156C32.2129 15.9375 34.375 15.3926 37.1992 15.3809H39.5371V14.291C39.5371 13.4121 39.3086 12.709 38.8516 12.1816C38.4062 11.6543 37.6973 11.3906 36.7246 11.3906C35.8691 11.3906 35.1953 11.5957 34.7031 12.0059C34.2227 12.416 33.9824 12.9785 33.9824 13.6934H28.9023C28.9023 12.5918 29.2422 11.5723 29.9219 10.6348C30.6016 9.69727 31.5625 8.96484 32.8047 8.4375C34.0469 7.89844 35.4414 7.62891 36.9883 7.62891C39.332 7.62891 41.1895 8.2207 42.5605 9.4043C43.9434 10.5762 44.6348 12.2285 44.6348 14.3613V22.6055C44.6465 24.4102 44.8984 25.7754 45.3906 26.7012V27H40.2578ZM36.0566 23.4668C36.8066 23.4668 37.498 23.3027 38.1309 22.9746C38.7637 22.6348 39.2324 22.1836 39.5371 21.6211V18.3516H37.6387C35.0957 18.3516 33.7422 19.2305 33.5781 20.9883L33.5605 21.2871C33.5605 21.9199 33.7832 22.4414 34.2285 22.8516C34.6738 23.2617 35.2832 23.4668 36.0566 23.4668ZM58.8379 21.7441C58.8379 21.123 58.5273 20.6367 57.9062 20.2852C57.2969 19.9219 56.3125 19.5996 54.9531 19.3184C50.4297 18.3691 48.168 16.4473 48.168 13.5527C48.168 11.8652 48.8652 10.459 50.2598 9.33398C51.666 8.19727 53.5 7.62891 55.7617 7.62891C58.1758 7.62891 60.1035 8.19727 61.5449 9.33398C62.998 10.4707 63.7246 11.9473 63.7246 13.7637H58.6445C58.6445 13.0371 58.4102 12.4395 57.9414 11.9707C57.4727 11.4902 56.7402 11.25 55.7441 11.25C54.8887 11.25 54.2266 11.4434 53.7578 11.8301C53.2891 12.2168 53.0547 12.709 53.0547 13.3066C53.0547 13.8691 53.3184 14.3262 53.8457 14.6777C54.3848 15.0176 55.2871 15.3164 56.5527 15.5742C57.8184 15.8203 58.8848 16.1016 59.752 16.418C62.4355 17.4023 63.7773 19.1074 63.7773 21.5332C63.7773 23.2676 63.0332 24.6738 61.5449 25.752C60.0566 26.8184 58.1348 27.3516 55.7793 27.3516C54.1855 27.3516 52.7676 27.0703 51.5254 26.5078C50.2949 25.9336 49.3281 25.1543 48.625 24.1699C47.9219 23.1738 47.5703 22.1016 47.5703 20.9531H52.3867C52.4336 21.8555 52.7676 22.5469 53.3887 23.0273C54.0098 23.5078 54.8418 23.748 55.8848 23.748C56.8574 23.748 57.5898 23.5664 58.082 23.2031C58.5859 22.8281 58.8379 22.3418 58.8379 21.7441ZM72.0215 10.0547C73.3691 8.4375 75.0625 7.62891 77.1016 7.62891C81.2266 7.62891 83.3184 10.0254 83.377 14.8184V27H78.2969V14.959C78.2969 13.8691 78.0625 13.0664 77.5938 12.5508C77.125 12.0234 76.3457 11.7598 75.2559 11.7598C73.7676 11.7598 72.6895 12.334 72.0215 13.4824V27H66.9414V0H72.0215V10.0547ZM104.699 15.5918C101.805 14.7598 99.6953 13.7402 98.3711 12.5332C97.0586 11.3145 96.4023 9.81445 96.4023 8.0332C96.4023 6.01758 97.2051 4.35352 98.8105 3.04102C100.428 1.7168 102.525 1.05469 105.104 1.05469C106.861 1.05469 108.426 1.39453 109.797 2.07422C111.18 2.75391 112.246 3.69141 112.996 4.88672C113.758 6.08203 114.139 7.38867 114.139 8.80664H110.746C110.746 7.25977 110.254 6.04688 109.27 5.16797C108.285 4.27734 106.896 3.83203 105.104 3.83203C103.439 3.83203 102.139 4.20117 101.201 4.93945C100.275 5.66602 99.8125 6.67969 99.8125 7.98047C99.8125 9.02344 100.252 9.9082 101.131 10.6348C102.021 11.3496 103.527 12.0059 105.648 12.6035C107.781 13.2012 109.445 13.8633 110.641 14.5898C111.848 15.3047 112.738 16.1426 113.312 17.1035C113.898 18.0645 114.191 19.1953 114.191 20.4961C114.191 22.5703 113.383 24.2344 111.766 25.4883C110.148 26.7305 107.986 27.3516 105.279 27.3516C103.521 27.3516 101.881 27.0176 100.357 26.3496C98.834 25.6699 97.6562 24.7441 96.8242 23.5723C96.0039 22.4004 95.5938 21.0703 95.5938 19.582H98.9863C98.9863 21.1289 99.5547 22.3535 100.691 23.2559C101.84 24.1465 103.369 24.5918 105.279 24.5918C107.061 24.5918 108.426 24.2285 109.375 23.502C110.324 22.7754 110.799 21.7852 110.799 20.5312C110.799 19.2773 110.359 18.3105 109.48 17.6309C108.602 16.9395 107.008 16.2598 104.699 15.5918ZM125.916 27.3516C123.338 27.3516 121.24 26.5078 119.623 24.8203C118.006 23.1211 117.197 20.8535 117.197 18.0176V17.4199C117.197 15.5332 117.555 13.8516 118.27 12.375C118.996 10.8867 120.004 9.72656 121.293 8.89453C122.594 8.05078 124 7.62891 125.512 7.62891C127.984 7.62891 129.906 8.44336 131.277 10.0723C132.648 11.7012 133.334 14.0332 133.334 17.0684V18.4219H120.449C120.496 20.2969 121.041 21.8145 122.084 22.9746C123.139 24.123 124.475 24.6973 126.092 24.6973C127.24 24.6973 128.213 24.4629 129.01 23.9941C129.807 23.5254 130.504 22.9043 131.102 22.1309L133.088 23.6777C131.494 26.127 129.104 27.3516 125.916 27.3516ZM125.512 10.3008C124.199 10.3008 123.098 10.7812 122.207 11.7422C121.316 12.6914 120.766 14.0273 120.555 15.75H130.082V15.5039C129.988 13.8516 129.543 12.5742 128.746 11.6719C127.949 10.7578 126.871 10.3008 125.512 10.3008ZM146.307 10.8984C145.814 10.8164 145.281 10.7754 144.707 10.7754C142.574 10.7754 141.127 11.6836 140.365 13.5V27H137.113V7.98047H140.277L140.33 10.1777C141.396 8.47852 142.908 7.62891 144.865 7.62891C145.498 7.62891 145.979 7.71094 146.307 7.875V10.8984ZM155.904 22.5879L160.615 7.98047H163.938L157.117 27H154.639L147.748 7.98047H151.07L155.904 22.5879ZM170.6 27H167.348V7.98047H170.6V27ZM167.084 2.93555C167.084 2.4082 167.242 1.96289 167.559 1.59961C167.887 1.23633 168.367 1.05469 169 1.05469C169.633 1.05469 170.113 1.23633 170.441 1.59961C170.77 1.96289 170.934 2.4082 170.934 2.93555C170.934 3.46289 170.77 3.90234 170.441 4.25391C170.113 4.60547 169.633 4.78125 169 4.78125C168.367 4.78125 167.887 4.60547 167.559 4.25391C167.242 3.90234 167.084 3.46289 167.084 2.93555ZM183.449 24.6973C184.609 24.6973 185.623 24.3457 186.49 23.6426C187.357 22.9395 187.838 22.0605 187.932 21.0059H191.008C190.949 22.0957 190.574 23.1328 189.883 24.1172C189.191 25.1016 188.266 25.8867 187.105 26.4727C185.957 27.0586 184.738 27.3516 183.449 27.3516C180.859 27.3516 178.797 26.4902 177.262 24.7676C175.738 23.0332 174.977 20.666 174.977 17.666V17.1211C174.977 15.2695 175.316 13.623 175.996 12.1816C176.676 10.7402 177.648 9.62109 178.914 8.82422C180.191 8.02734 181.697 7.62891 183.432 7.62891C185.564 7.62891 187.334 8.26758 188.74 9.54492C190.158 10.8223 190.914 12.4805 191.008 14.5195H187.932C187.838 13.2891 187.369 12.2812 186.525 11.4961C185.693 10.6992 184.662 10.3008 183.432 10.3008C181.779 10.3008 180.496 10.8984 179.582 12.0938C178.68 13.2773 178.229 14.9941 178.229 17.2441V17.8594C178.229 20.0508 178.68 21.7383 179.582 22.9219C180.484 24.1055 181.773 24.6973 183.449 24.6973ZM202.557 27.3516C199.979 27.3516 197.881 26.5078 196.264 24.8203C194.646 23.1211 193.838 20.8535 193.838 18.0176V17.4199C193.838 15.5332 194.195 13.8516 194.91 12.375C195.637 10.8867 196.645 9.72656 197.934 8.89453C199.234 8.05078 200.641 7.62891 202.152 7.62891C204.625 7.62891 206.547 8.44336 207.918 10.0723C209.289 11.7012 209.975 14.0332 209.975 17.0684V18.4219H197.09C197.137 20.2969 197.682 21.8145 198.725 22.9746C199.779 24.123 201.115 24.6973 202.732 24.6973C203.881 24.6973 204.854 24.4629 205.65 23.9941C206.447 23.5254 207.145 22.9043 207.742 22.1309L209.729 23.6777C208.135 26.127 205.744 27.3516 202.557 27.3516ZM202.152 10.3008C200.84 10.3008 199.738 10.7812 198.848 11.7422C197.957 12.6914 197.406 14.0273 197.195 15.75H206.723V15.5039C206.629 13.8516 206.184 12.5742 205.387 11.6719C204.59 10.7578 203.512 10.3008 202.152 10.3008ZM224.828 21.9551C224.828 21.0762 224.494 20.3965 223.826 19.916C223.17 19.4238 222.016 19.002 220.363 18.6504C218.723 18.2988 217.416 17.877 216.443 17.3848C215.482 16.8926 214.768 16.3066 214.299 15.627C213.842 14.9473 213.613 14.1387 213.613 13.2012C213.613 11.6426 214.27 10.3242 215.582 9.24609C216.906 8.16797 218.594 7.62891 220.645 7.62891C222.801 7.62891 224.547 8.18555 225.883 9.29883C227.23 10.4121 227.904 11.8359 227.904 13.5703H224.635C224.635 12.6797 224.254 11.9121 223.492 11.2676C222.742 10.623 221.793 10.3008 220.645 10.3008C219.461 10.3008 218.535 10.5586 217.867 11.0742C217.199 11.5898 216.865 12.2637 216.865 13.0957C216.865 13.8809 217.176 14.4727 217.797 14.8711C218.418 15.2695 219.537 15.6504 221.154 16.0137C222.783 16.377 224.102 16.8105 225.109 17.3145C226.117 17.8184 226.861 18.4277 227.342 19.1426C227.834 19.8457 228.08 20.707 228.08 21.7266C228.08 23.4258 227.4 24.791 226.041 25.8223C224.682 26.8418 222.918 27.3516 220.75 27.3516C219.227 27.3516 217.879 27.082 216.707 26.543C215.535 26.0039 214.615 25.2539 213.947 24.293C213.291 23.3203 212.963 22.2715 212.963 21.1465H216.215C216.273 22.2363 216.707 23.1035 217.516 23.748C218.336 24.3809 219.414 24.6973 220.75 24.6973C221.98 24.6973 222.965 24.4512 223.703 23.959C224.453 23.4551 224.828 22.7871 224.828 21.9551Z" fill="#000080"/>
</svg>
