<svg width="290" height="230" viewBox="0 0 290 230" fill="none" xmlns="http://www.w3.org/2000/svg">
    <path d="m256.185 178.813-20.563 17.33c-5.688-1.781-10.704-7.046-11.32-13.311l18.497-15.972-8.995-9.503c-1.44 3.774-3.172 9.28-2.919 12.955l.076.679a42.27 42.27 0 0 1-21.78-.062 41.448 41.448 0 0 1-4.193-19.06 72.164 72.164 0 0 1-22.19-9.631 14.252 14.252 0 0 1-5.335-17.898l11.324-24.93a19.227 19.227 0 0 1 15.04 6.659l-9.67 22.693c5.513 3.224 14.999 7.852 21.181 6.283l-2.105 5.715a2.412 2.412 0 0 0 .179 2.087 2.416 2.416 0 0 0 1.743 1.162l8.906 1.247a2.415 2.415 0 0 0 2.544-1.423l3.264-7.763c7.314 1.984 14.969 8.699 19.909 14.449a85.813 85.813 0 0 1 9.063 12.673 12.268 12.268 0 0 1-2.656 15.621z" fill="#FEDF6C"/>
    <path d="M217.165 117.797h-18.23a.23.23 0 0 1-.163-.067.23.23 0 0 1 .163-.394h18.234c.062.001.12.026.163.069a.234.234 0 0 1 .066.164.229.229 0 0 1-.233.228zM247.232 117.336h-11.713a.232.232 0 0 0-.231.231.232.232 0 0 0 .231.23h11.713a5.145 5.145 0 0 1 5.14 5.14v31.021c0 .061.024.12.067.163a.23.23 0 0 0 .394-.163v-31.021a5.61 5.61 0 0 0-5.601-5.601z" fill="#092F3A"/>
    <path d="M152.997 82.271c-2.06.314-4.503.4-7.012.518 9.901 3.804 4.929 3.061-1.393 2.331 9.08 5.716-7.362-.859-9.938-.308a17.933 17.933 0 0 0-2.62 1.678 11.784 11.784 0 0 0-5.206-8.26c9.07-1.727 19.196-13.809 10.92-2.05-.729 1.194-.924 1.976-.041 2.275 7.549.805 15.904 2.458 15.29 3.816zM83.655 124.8c2.16 1.941 2.778 4.369 1.8 5.14-.286.19-.61.319-.948.379.343 1.798-.86 2.158-2.405 1.995a1.526 1.526 0 0 1-.457 1.131c-1.322 1.209-5.79.576-7.05-2.612a21.236 21.236 0 0 0-8.024-.1 19.591 19.591 0 0 0 1.898-13.183c-.04-.229 14.694.314 14.742 1.296.048.983-2.498 1.55-2.7 1.596a127.59 127.59 0 0 0 12.985 4.273c1.449.311-2.706 2.03-9.84.085z" fill="#FEDF6C"/>
    <path d="M172.636 38.826h-59.754a14.399 14.399 0 0 0-14.38 14.384v9.383H75.754a.23.23 0 0 0 0 .461h38.586a5.145 5.145 0 0 1 5.138 5.14v11.687a.232.232 0 0 0 .231.23.23.23 0 0 0 .231-.23V68.194a5.608 5.608 0 0 0-5.6-5.601h-9.088v-8.017a9.545 9.545 0 0 1 6.113-8.815 9.54 9.54 0 0 1 3.718-.633h55.795a9.536 9.536 0 0 1 9.824 9.448c.009 66.581-.1 62.294.183 62.354a.237.237 0 0 0 .153-.019.233.233 0 0 0 .106-.111c6.097-13.374 5.877-12.864 5.877-12.988V53.21a14.398 14.398 0 0 0-14.385-14.384zM62.133 62.592H38.845a5.607 5.607 0 0 0-5.601 5.6v32.213a.23.23 0 1 0 .461 0V68.193a5.146 5.146 0 0 1 5.14-5.14h23.288a.23.23 0 0 0 0-.461z" fill="#092F3A"/>
    <path d="M227.156 180.093h-55.417a5.148 5.148 0 0 1-5.14-5.139c0-47.173.031-46.98-.011-47.103l-4.785-14.706 15.064 4.64c.122.041.664.011 3.675.011a.231.231 0 0 0 0-.462h-3.57l-15.46-4.761a.23.23 0 0 0-.288.292l4.908 15.092v46.993a5.603 5.603 0 0 0 5.6 5.6h8.964v7.72a9.837 9.837 0 0 1-9.826 9.825h-55.787a9.846 9.846 0 0 1-9.832-9.83v-62.453h3.869c15.282 4.698 15.382 4.757 15.504 4.757a.224.224 0 0 0 .105-.026.235.235 0 0 0 .115-.277l-4.908-15.083V97.964a.23.23 0 1 0-.461 0c0 18.263-.054 17.355.061 17.479l4.726 14.541-15.071-4.632c-.122-.027-.814 0-17.153 0a.23.23 0 0 0-.215.231.232.232 0 0 0 .215.231h6.463v64.212a14.396 14.396 0 0 0 14.38 14.38h59.754a14.396 14.396 0 0 0 14.384-14.376v-9.47h40.137a.236.236 0 0 0 .234-.234.233.233 0 0 0-.234-.233z" fill="#092F3A"/>
    <path d="M64.704 199.939a52.457 52.457 0 0 1 7.035-69.651.235.235 0 0 1 .165-.056.231.231 0 0 1 .146.397 52.04 52.04 0 0 0-1.632 75.269 52.032 52.032 0 0 0 38.033 15.164 52.032 52.032 0 0 0 37.23-17.043.23.23 0 1 1 .342.31 52.499 52.499 0 0 1-63.94 10.843 52.497 52.497 0 0 1-17.38-15.233z" fill="#092F3A"/>
    <path d="m129.655 214.784-21.595-.553a1.409 1.409 0 0 0-.661.095 1.408 1.408 0 0 0-.851.979c-.053.22-.054.449-.001.668 1.279 5.276.908 3.766.996 4.025a.222.222 0 0 0 .165.138c.245.033 1.997.057 2.55.057 2.521 0 5.407-.146 9.187-.462a56.144 56.144 0 0 1-11.064 3.121c-.223.163-.231-.123 1.895 6.077a1.414 1.414 0 0 0 1.494 1.066 1.42 1.42 0 0 0 .626-.207 74.544 74.544 0 0 0 17.879-12.401 1.417 1.417 0 0 0 .166-2.256 1.424 1.424 0 0 0-.786-.347zm.343 2.244a74.378 74.378 0 0 1-17.824 12.366.952.952 0 0 1-.878.08.955.955 0 0 1-.572-.671l-1.912-5.572a62.749 62.749 0 0 0 12.333-3.653l.028-.015a.23.23 0 0 0-.139-.427c-4.347.468-8.72.654-13.092.556l-.943-3.821a.958.958 0 0 1 1.03-1.175l21.588.553a.963.963 0 0 1 .77 1.338.958.958 0 0 1-.389.441z" fill="#092F3A"/>
    <path d="M68.86 71.941a11.721 11.721 0 0 1-1.587-.89 3.985 3.985 0 0 0 1.07 2.761c.225 1.473 2.085 1.538 3.238 1.718-2.782 4.1-7.96 4.361-14.75 2.04a16.168 16.168 0 0 0 5.31-4.94c2.32-3.38 2.895-6.774 2.52-7.146-3.572-3.54-.419-6.84 1.235-4.295.79 1.214 1.265 1.202 1.523.506 1.08-3.64 6.179-8.665 7.966-1.001l.408 2.453c1.242 11.25-4.14 10.094-6.933 8.794z" fill="#FEDF6C"/>
    <path d="M198.667 194.505a2.245 2.245 0 1 1 0-4.49 2.245 2.245 0 0 1 0 4.49zm0-4.029a1.788 1.788 0 0 0-1.65 1.101 1.784 1.784 0 0 0 1.301 2.433 1.784 1.784 0 1 0 .349-3.534zM287.147 194.505a2.243 2.243 0 0 1-2.075-1.386 2.25 2.25 0 0 1 2.934-2.934 2.243 2.243 0 0 1 .728 3.661 2.25 2.25 0 0 1-1.587.659zm0-4.029a1.786 1.786 0 0 0-1.263 3.046 1.784 1.784 0 1 0 1.263-3.046z" fill="#F37B26"/>
    <path d="M263.231 143.822a2.249 2.249 0 0 1-2.074-1.386 2.25 2.25 0 0 1 .487-2.447 2.25 2.25 0 0 1 2.447-.487 2.243 2.243 0 0 1 .727 3.662c-.42.421-.991.657-1.587.658zm0-4.028a1.784 1.784 0 1 0-.002 3.569 1.784 1.784 0 0 0 .002-3.569zM2.245 147.981a2.25 2.25 0 0 1-2.074-1.386 2.245 2.245 0 1 1 2.074 1.386zm0-4.028a1.785 1.785 0 0 0-1.75 2.132 1.78 1.78 0 0 0 1.401 1.402 1.784 1.784 0 1 0 .35-3.534zM205.003 4.49a2.243 2.243 0 0 1-2.202-2.683 2.249 2.249 0 0 1 3.062-1.636 2.241 2.241 0 0 1 1.386 2.074 2.25 2.25 0 0 1-2.246 2.246zm0-4.027a1.78 1.78 0 0 0-1.649 1.1 1.784 1.784 0 1 0 1.649-1.1z" fill="#092F3A"/>
    <path d="M2.245 40.883a2.245 2.245 0 1 1 0-4.49 2.245 2.245 0 0 1 0 4.49zm0-4.028a1.784 1.784 0 1 0-.002 3.568 1.784 1.784 0 0 0 .002-3.568z" fill="#F37B26"/>
    <path d="M45.635 153.734h-4.796v-4.799a.226.226 0 0 0-.061-.172.225.225 0 0 0-.26-.055.225.225 0 0 0-.076.055.227.227 0 0 0-.061.172v4.794h-4.799c-.06 0-.119.024-.162.068a.229.229 0 0 0 .162.391h4.797v4.799a.228.228 0 0 0 .385.151.227.227 0 0 0 .072-.151v-4.798h4.799a.229.229 0 0 0 .143-.379.229.229 0 0 0-.143-.076zM81.059 36.462a1.608 1.608 0 1 1 0-3.216 1.608 1.608 0 0 1 0 3.216zm0-2.75a1.144 1.144 0 1 0 .002 2.287 1.144 1.144 0 0 0-.002-2.288zM87.041 36.462a1.607 1.607 0 1 1-.002-3.213 1.607 1.607 0 0 1 .002 3.213zm0-2.75a1.145 1.145 0 1 0 0 2.29 1.145 1.145 0 0 0 0-2.29zM93.023 36.462a1.607 1.607 0 1 1-.003-3.214 1.607 1.607 0 0 1 .003 3.214zm0-2.75a1.145 1.145 0 1 0 0 2.289 1.145 1.145 0 0 0 0-2.29z" fill="#092F3A"/>
    <path d="M87.041 21.835c-11.198 0-18.008 11.323-12.05 19.954l-2.184 5.776a.23.23 0 0 0 .303.295l5.758-2.351c9.31 5.979 22.42-.017 22.421-10.653.001-7.18-6.391-13.02-14.248-13.02zM79.02 45.058a.157.157 0 0 0-.166-.024c-.284.071-1.257.498-5.427 2.2 1.56-4.128 1.945-5.097 2.031-5.376.039-.122.064-.112-.02-.235-5.843-8.302.699-19.326 11.604-19.326 7.608 0 13.787 5.635 13.787 12.56.003 10.281-12.788 16.1-21.809 10.201zM259.043 163.075a81.322 81.322 0 0 0-13.793-17.615c3.292-6.517 3.852-11.981 1.662-16.244-3-5.842-10.33-7.532-11.8-7.816 2.4-8.474-2.35-12.733-7.873-12.147-3.558.368-7.231 2.616-9.672 7.055-2.331 4.245-2.945 7.341-1.804 9.202a5.142 5.142 0 0 0 4.638 1.933c-.122 6.663-5.004 8.576-11.49 7.295a49.137 49.137 0 0 1-14.459-6.07c8.189-19.215 9.434-22.066 9.589-22.547.035-.109.015-.095 0-.122-.241-.31-.499-.605-.774-.884 1.142-2.401 6.684-12.49 6.341-13.49-.378-1.073-3.966 2.003-4.835 2.757 1.417-6.149.859-11.739.171-13.136-.246-.503-.578-.393-.697-.046-.642 1.874-1.423 6.36-1.963 9.166-.383-2.173-2.073-3.896-3.6-2.737a1.5 1.5 0 0 0-1.372-.454 1.99 1.99 0 0 0-1.256 1.035 1.358 1.358 0 0 0-.926-.11c-1.608.41-2.05 2.511-2.454 4.249a22.391 22.391 0 0 1-2.768 6.909l-1.119-.073c-.056 0-.089-.057-.218.168-.41.724-2.112 4.627-11.319 24.897a14.558 14.558 0 0 0 5.422 18.184 67.64 67.64 0 0 0 22.086 9.57c-.265 5.053.749 11.321 4.164 18.93l-3.817 9.307a.242.242 0 0 0-.017.088.225.225 0 0 0 .068.163.21.21 0 0 0 .075.05.223.223 0 0 0 .176 0 .227.227 0 0 0 .075-.051.21.21 0 0 0 .05-.075l3.779-9.213a42.692 42.692 0 0 0 21.62.036 12.15 12.15 0 0 1 3.467 2.564c-7.975 6.883-9.791 8.421-10.207 8.822-.151.145-.123.141-.123.189a13.938 13.938 0 0 0 1.059 4.142 25.022 25.022 0 0 1-6.562 4.603c-2.863 1.402-3.086 2.034-2.961 2.428.3.937 2.919.35 3.788.173 1.509-.306 4.036-.816 4.461-.273.085.11.068.292-.049.545-2.13 2.839-1.407 2.454-4.559 5.492-.695.668-2.7 2.666-4.806 4.485-1.359 1.175-1.897 1.978-1.648 2.454a.625.625 0 0 0 .745.245 18.675 18.675 0 0 0 4.279-2.109c-.395 1.049-1.535 4.156-.632 4.609.859.422 2.488-1.964 3.027-2.771 6.202-9.202 9.151-10.256 11.458-12.27a16.32 16.32 0 0 0 3.92 1.8c.179.016-.467.491 20.745-17.379a12.46 12.46 0 0 0 2.708-15.913zm-38.426-33.405c1.227-1.433 1.799-2.086 2.051-2.398.324-.412.153-.559-.256-.491-6.231 1.105-9.06-1.861-4.441-10.261a13.321 13.321 0 0 1 3.369-4.223c2.973-1.886 4.821 2.786 4.493 5.949a.892.892 0 0 0 .368.85c.334.165.822 0 1.588-.521 2.245-1.532 3.547 2.296-.724 4.049-1.086.444-1.951 5.106-.876 10.39.454 2.224 1.539 2.618 3.492 3.233l-3.289 7.495a2.191 2.191 0 0 1-2.3 1.283l-8.905-1.245a2.201 2.201 0 0 1-.908-.345 2.193 2.193 0 0 1-.83-2.591l2.156-5.673a6.743 6.743 0 0 0 5.012-5.501zm-21.148-41.924c1.009-.266 2.806 1.387 2.394 4.671-.107.844-.396 1.252-.634 1.282-.238.031-.658-.301-1.073-1.319a6.307 6.307 0 0 0-1.152-4.417 1.48 1.48 0 0 1 .465-.217zm-2.037-.13c1.065-.283 2.474 2.086 2.269 4.681a.232.232 0 0 0-.014.145 8.535 8.535 0 0 1-.067.508c-.157.936-.56 1.46-.859 1.472-.271.006-.661-.389-.97-1.537a5.326 5.326 0 0 0-1.35-4.426 1.548 1.548 0 0 1 .991-.843zm-4.302 4.83c.34-1.472.772-3.558 2.116-3.905.914-.234 1.686 1.096 1.942 2.118.191.764.412 3.197-.378 3.19a.873.873 0 0 1-.613-.394 5.038 5.038 0 0 1-.794-2.495.232.232 0 0 0-.404-.12.227.227 0 0 0-.055.164c.035.383.096.763.184 1.137a2.866 2.866 0 0 0-1.137.05.23.23 0 0 0-.051.414c.05.03.11.042.167.03a1.994 1.994 0 0 1 1.176.037c.663 1.935 1.922 1.949 2.331 1.105.75 1.772 2.044 1.272 2.432-.573.84 1.494 2.028 1.216 2.277-.723.6-2.64 1.523-8.442 2.302-10.92a27.976 27.976 0 0 1-.415 13.228c-.94.166-4.867 1.037-4.568 4.011a.231.231 0 0 0 .405.12.23.23 0 0 0 .054-.165c-.287-2.864 4.319-3.534 4.366-3.54a.226.226 0 0 0 .122-.057 17.709 17.709 0 0 1 4.594-3.313c-.112 1.313-5.216 10.798-6.246 12.912a18.882 18.882 0 0 0-12.51-5.472 22.502 22.502 0 0 0 2.703-6.838zm38.047 78.388c-.511-3.657 1.142-9.08 2.689-13.122l8.603 9.127-7.709 6.657a12.44 12.44 0 0 0-3.583-2.662zm-17.756 35.828c-.294.078-.261-.094-.112-.36a6.595 6.595 0 0 1 1.436-1.541c2.243-1.935 5.858-5.505 6.185-5.847a52.34 52.34 0 0 0-2.822 5.348 20.496 20.496 0 0 1-4.687 2.397v.003zm6.409-.084c-1.603 2.382-2.332 2.663-2.437 2.615-.314-.228.138-2.302 1.104-4.663a24.058 24.058 0 0 1 1.739-3.435 43.54 43.54 0 0 1 5.644-8.579.233.233 0 0 0-.205-.375.235.235 0 0 0-.155.085c-.45.56-.851 1.069-1.212 1.536-.523-1.241-4.264-.141-6.308.192-1.201.195-1.913.033-1.963-.109 0 0-.117-.483 2.724-1.874a25.837 25.837 0 0 0 6.562-4.568 16.891 16.891 0 0 0 5.933 6.9c-2.246 1.927-5.261 3.122-11.426 12.269v.006zm36.208-27.939-20.464 17.244a15.998 15.998 0 0 1-11.025-12.957l18.404-15.893a.24.24 0 0 0 .057-.074.25.25 0 0 0 .023-.089.24.24 0 0 0-.064-.17l-10.897-11.562a.23.23 0 1 0-.336.317l1.778 1.887c-1.577 4.088-3.303 9.662-2.806 13.478a42.25 42.25 0 0 1-21.357-.088c-6.611-14.724-4.126-24.337-.873-29.807a.239.239 0 0 0 .02-.172.233.233 0 0 0-.276-.163.23.23 0 0 0-.141.099 24.242 24.242 0 0 0-3.283 10.847 67.264 67.264 0 0 1-21.872-9.495 14.098 14.098 0 0 1-5.251-17.602l11.258-24.785 2.242.146a18.33 18.33 0 0 1 12.386 6.315c-7.375 17.307-9.213 21.418-9.562 22.445-.135.4-.033.35.041.402 5.638 3.298 14.636 7.749 21.023 6.351l-2.042 5.37a2.644 2.644 0 0 0 2.106 3.558c9.711 1.359 9.006 1.271 9.267 1.271a2.65 2.65 0 0 0 2.423-1.579l3.313-7.541c11.779 3.734 22.209 16.244 28.518 26.923a12.006 12.006 0 0 1-2.61 15.321v.003zM213.371 77.52c-.134.32-.375.438-.72.431-.777-.014-1.554-.004-2.332-.005-.416 0-.637-.22-.637-.638l-.002-5.403a4.552 4.552 0 0 0-.044-.583c-.065-.507-.397-.802-.837-.983-.665-.274-1.343-.07-1.762.516a1.507 1.507 0 0 0-.274.838c-.008.262-.006.526-.006.787v4.863c0 .395-.2.602-.594.603-.921.002-1.843.002-2.764 0-.4 0-.596-.2-.596-.597v-9.587c0-.42.203-.619.625-.619.808 0 1.617.013 2.424-.007.355-.008.679.26.638.64-.007.07 0 .142 0 .24.034-.023.067-.049.098-.076.715-.722 1.593-1.05 2.598-1.065.567-.008 1.134 0 1.677.192 1.296.459 2.093 1.37 2.414 2.7.042.174.064.352.095.528l-.001 7.225zm-.526-.11v-6.718c0-.088-.002-.175-.007-.262-.087-1.352-.886-2.426-2.134-2.864-.485-.171-.99-.17-1.495-.164-.866.01-1.621.297-2.233.921-.296.302-.582.611-.873.917-.029.03-.062.054-.124.104v-1.669h-2.614v9.734h2.891v-.206c0-1.776.003-3.551 0-5.327-.002-.573.15-1.083.534-1.52.88-.997 2.593-.82 3.2.335.19.362.22.756.222 1.155.008 1.79.015 3.582.021 5.373 0 .064.006.128.009.191h2.603zM199.741 62.387a.72.72 0 0 1 .186.024c.224.059.456.101.662.199.827.39 1.281 1.255 1.165 2.17a2.145 2.145 0 0 1-1.648 1.792c-1.149.25-2.32-.538-2.516-1.69-.204-1.212.619-2.324 1.824-2.467.008 0 .016-.002.024-.004.1-.017.202-.026.304-.024h-.001zm1.5 2.118c0-.871-.705-1.59-1.558-1.582-.9.009-1.594.692-1.601 1.576-.007.906.71 1.59 1.667 1.589.795-.001 1.491-.74 1.492-1.582zM201.509 72.547v4.522c0 .54-.332.875-.875.877-.648.002-1.297.002-1.945 0-.532-.002-.868-.336-.869-.87l-.003-9.075c0-.552.38-.882.879-.866.648.021 1.297.004 1.945.005.531 0 .866.338.866.867.002 1.514.003 3.027.002 4.54zm-.526.01v-4.506c0-.29-.093-.383-.374-.383h-1.914c-.266 0-.347.08-.347.352v9.044c0 .256.1.355.357.355h1.914c.281 0 .364-.087.364-.371v-4.49zM137.744 78.222a.561.561 0 0 1-.35-.286c-.123-.288.06-.824.549-1.624 3.116-4.43 3.306-5.03 2.995-5.345-.31-.314-.932.069-3.011 1.485-2.635 1.796-6.625 4.51-10.455 5.417a5.929 5.929 0 0 0-.605.112 16.398 16.398 0 0 0-2.706-1.446.234.234 0 0 0-.229.027c-5.455 4.063-13.543 9.531-21.163 12.574a119.73 119.73 0 0 0-15.48-9.792c-6.98-3.406-16.37-3.96-17.532-4.365a1.574 1.574 0 0 1-1.186-1.2 2.633 2.633 0 0 1 .38-1.543c1.687.75 3.697 1.162 5.195.086 1.778-1.276 2.41-4.373 1.874-9.217-.544-3.279-.152-1.202-1.983-10.214a2.01 2.01 0 0 0-3.732-.785 2.016 2.016 0 0 0-3.63 0 2.007 2.007 0 0 0-3.67.49 2.017 2.017 0 0 0-3.425 1.925 85.15 85.15 0 0 1 2.33 8.357c.96 4.626.971 7.96.034 9.64a15.546 15.546 0 0 1-9.17 6.433c-12.753 3.205-19.66 19.325-23.208 32.284a12.974 12.974 0 0 0 8.424 15.706 93.545 93.545 0 0 0 28.105 4.844c.04 0 .08-.01.115-.029a.25.25 0 0 0 .086-.081c.145-.235.285-.473.418-.712a20.815 20.815 0 0 1 7.713.071c1.568 3.681 7.541 4.242 7.891 1.533 1.666.089 2.659-.418 2.454-2.067.297-.072.578-.199.828-.375a1.703 1.703 0 0 0 .528-1.545 6.087 6.087 0 0 0-1.7-3.34c1.794.449 3.635.684 5.485.702a7.218 7.218 0 0 0 3.975-.753c.224-.23.183-.582-.343-.698a119.805 119.805 0 0 1-12.257-4.007c.9-.265 2.198-.798 2.156-1.646-.016-.34-.9-.614-2.233-.82l-.834-6.046a76.375 76.375 0 0 0 2.426-15.156 50.361 50.361 0 0 0 13.504 7.491 15.729 15.729 0 0 0 12.147-.33c8.497-3.875 13.7-6.732 23.926-14.392a.236.236 0 0 0 .092-.181 17.48 17.48 0 0 0-.189-2.809 14.901 14.901 0 0 1 2.481-1.575c1.686-.29 10.205 2.678 12.108 2.678.368 0 .552-.09.629-.266.123-.277.05-.645-1.948-1.97.957.104 3.854.48 5.139.48.766 0 1.062-.122 1.125-.368.093-.379-.215-.823-4.732-2.6a58.953 58.953 0 0 0 5.945-.47.238.238 0 0 0 .105-.045.238.238 0 0 0 .071-.088c1.006-2.233-13.032-3.896-15.462-4.149zm2.823-6.87a36.93 36.93 0 0 1-3.007 4.71c-.872 1.428-.672 1.874-.576 2.087a70.264 70.264 0 0 0-7.512-.403c5.169-1.907 9.847-5.978 11.092-6.4l.003.005zm-78.222 1.387c2.288-3.344 2.996-6.902 2.481-7.42-3.19-3.163-.757-6.073.727-4.223.299.368.797 1.337 1.418 1.298.395-.024.594-.412.719-.788.649-2.008 2.74-4.76 4.651-4.7 1.27.038 2.246 1.36 2.822 3.826l.404 2.435c.513 4.654-.054 7.608-1.686 8.78-1.449 1.04-3.475.457-4.918-.214a9.997 9.997 0 0 1-1.46-.813c-.287-.185-.454-.051-.457.123a4.23 4.23 0 0 0 1.087 2.884c.206 1.045 1.227 1.644 3.04 1.779-2.547 3.412-7.064 4.002-13.785 1.8a16.1 16.1 0 0 0 4.957-4.767zm31.115 52.203c-.682.437-4.26 1.12-9.693-.351a9.86 9.86 0 0 0-1.826-1.276.236.236 0 0 0-.255.024.237.237 0 0 0-.084.155.232.232 0 0 0 .12.227c1.91 1.039 3.781 2.992 3.94 4.895a1.15 1.15 0 0 1-.98 1.427 8.096 8.096 0 0 0-4.08-4.663.233.233 0 0 0-.17-.011.234.234 0 0 0-.15.279.23.23 0 0 0 .101.137 7.117 7.117 0 0 1 3.944 4.894 1.272 1.272 0 0 1-.355 1.144 2.82 2.82 0 0 1-1.638.282c-.123-1.915-2.019-3.697-3.744-4.708a.234.234 0 0 0-.316.082.24.24 0 0 0-.025.176.231.231 0 0 0 .107.141c2.406 1.41 3.391 3.117 3.51 4.244a1.424 1.424 0 0 1-.369 1.237c-1.202 1.104-5.147.491-6.503-2.124a17.92 17.92 0 0 1 3.572 1.149.233.233 0 0 0 .325-.027.233.233 0 0 0-.027-.326 21.15 21.15 0 0 0-4.226-1.338 22.043 22.043 0 0 0-7.641-.166 19.736 19.736 0 0 0 1.753-12.638 39.712 39.712 0 0 1 10.736 2.493 132 132 0 0 0 13.974 4.642zM80.532 120.2a38.997 38.997 0 0 0-8.147-2.394c1.709.064 9.864.465 10.593 1.091-.038.541-1.408 1.073-2.447 1.303zm-11.873-2.913c-.034-.19-.071-.384-.11-.577a.235.235 0 0 0-.074-.128.236.236 0 0 0-.136-.057 113.127 113.127 0 0 1-15.383-2.331 8.413 8.413 0 0 1 1.963-1.652c8.214 1.35 17.017 1.68 25.03-.304l.785 5.7c-4.01-.423-8.04-.641-12.074-.651zm-21.418-4.472a62.481 62.481 0 0 1 4.613-9.949L54.6 112.2a8.73 8.73 0 0 0-2.152 1.887 117.578 117.578 0 0 1-5.207-1.272zm61.02-9.262a15.263 15.263 0 0 1-11.791.322 51.507 51.507 0 0 1-10.7-5.474l-3.155-10.306c-.063-.2-.399-.306-.447.2-.15 1.628 1.567 8.812-2.208 23.475-7.062 1.768-15.438 1.88-24.908.335l-1.513-5.153c.266-5.062.404-6.796.389-7.407-.011-.481-.329-.401-.418-.26a62.732 62.732 0 0 0-6.79 13.6.223.223 0 0 0 .008.185.234.234 0 0 0 .144.119 121.782 121.782 0 0 0 21.26 3.781 19.421 19.421 0 0 1-2.159 14.341 101.698 101.698 0 0 1-27.836-4.814 12.518 12.518 0 0 1-8.125-15.139c2.878-10.51 9.678-28.638 22.872-31.963a16.047 16.047 0 0 0 3.967-1.576c5.444 1.84 11.533 2.662 14.838-2.045 4.87.645 10.839 1.761 15.397 3.984a120.356 120.356 0 0 1 15.509 9.825.236.236 0 0 0 .225.03c7.651-3.032 15.775-8.509 21.28-12.6 5.276 2.282 7.938 6.41 7.913 12.27-10.132 7.583-15.305 10.419-23.752 14.27zm38.779-16.319c-.915.208-7.178-1.831-10.264-2.453 2.586.03 5.168.219 7.73.568a9.65 9.65 0 0 1 2.539 1.883l-.005.002zm-10.681-2.903a37.193 37.193 0 0 1 9.588-1.309c4.006 1.542 5.103 2.168 5.361 2.42-1.285.346-10.492-1.334-14.949-1.11zm-1.989.337c-.757.418-1.483.894-2.169 1.422a11.995 11.995 0 0 0-4.813-7.745c4.988-.82 23.68 1.656 25.334 3.634a.377.377 0 0 1 .059.091c-4.991.725-13.839.142-18.41 2.598h-.001z" fill="#092F3A"/>
    <path d="M63.67 121.206a1.29 1.29 0 0 0 1.268-1.548 1.293 1.293 0 1 0-2.465.749 1.297 1.297 0 0 0 1.197.799zM44.755 123.126a1.297 1.297 0 0 0-1.27 1.548 1.292 1.292 0 0 0 1.018 1.016 1.294 1.294 0 1 0 .252-2.564zM35.54 105.687a1.296 1.296 0 0 0-1.269 1.547 1.295 1.295 0 1 0 1.27-1.547zM51.243 94.633a1.294 1.294 0 1 0 0 2.589 1.294 1.294 0 0 0 0-2.589zM57.267 79.506a1.294 1.294 0 1 0 0 2.588 1.294 1.294 0 0 0 0-2.588zM70.306 92.585a1.294 1.294 0 1 0 0 2.589 1.294 1.294 0 0 0 0-2.589zM59.724 104.394a1.295 1.295 0 1 0 .008 2.59 1.295 1.295 0 0 0-.008-2.59zM89.366 94.633a1.295 1.295 0 1 0 0 2.59 1.295 1.295 0 0 0 0-2.59zM101.913 91.043a1.295 1.295 0 1 0 0 2.59 1.295 1.295 0 0 0 0-2.59zM117.709 93.875a1.295 1.295 0 1 0 0 2.589 1.295 1.295 0 0 0 0-2.59zM124.622 79.836a1.296 1.296 0 0 0-.914 2.21 1.295 1.295 0 1 0 .914-2.21zM76.689 106.982a1.295 1.295 0 1 0 0 2.59 1.295 1.295 0 0 0 0-2.59zM79.277 79.025a1.295 1.295 0 1 0 .003 2.59 1.295 1.295 0 0 0-.003-2.59z" fill="#092F3A"/>
</svg>
