<svg width="24" height="24" viewBox="0 0 24 24" fill="none" xmlns="http://www.w3.org/2000/svg">
<g clip-path="url(#clip0_186_79)">
<path d="M19.6293 7.91309H4.37058L0.00317383 10.2156V11.5379L11.9999 19.5657L23.9967 11.5379V10.2156L19.6293 7.91309Z" fill="#FFBE46"/>
<path d="M23.9967 10.2156L19.6293 7.91309H12.0005V19.5653L23.9967 11.5379V10.2156Z" fill="#FFA725"/>
<path d="M3.84155 0V13.5837L12.0001 19.0431L20.1586 13.5837V0H3.84155Z" fill="#AD2666"/>
<path d="M20.1584 0H12.0005V19.0427L20.1584 13.5837V0Z" fill="#5B3364"/>
<path d="M16.5249 6.95254L13.4011 6.49501L12.0007 3.66553L10.6003 6.49501L7.47656 6.95254L9.73476 9.15874L9.20462 12.2709L12.0007 10.8051L14.7968 12.2709L14.2667 9.15874L16.5249 6.95254Z" fill="#FFD567"/>
<path d="M16.0972 15.2828L11.9999 17.8734L7.903 15.283L0.00317383 22.0352V24H23.9967V22.0352L16.0972 15.2828Z" fill="#FFE7AD"/>
<path d="M23.9967 22.0352L16.0972 15.2829L12.0005 17.8731V24H23.9967V22.0352ZM0.00317383 10.2156V24L9.22321 16.1178L0.00317383 10.2156Z" fill="#FFD567"/>
<path d="M14.7756 16.1185L23.9968 24V10.2156L14.7756 16.1185Z" fill="#FFD567"/>
<path d="M14.7755 16.1185L23.9967 24V10.2156L14.7755 16.1185ZM16.5246 6.95254L13.4009 6.49502L12.0005 3.66553V10.8051L14.7966 12.271L14.2665 9.15875L16.5246 6.95254Z" fill="#FF8000"/>
</g>
<defs>
<clipPath id="clip0_186_79">
<rect width="24" height="24" fill="white"/>
</clipPath>
</defs>
</svg>
