<svg width="375" height="812" viewBox="0 0 375 812" fill="none" xmlns="http://www.w3.org/2000/svg">
    <path fill="#32AAED" d="M0 0h375v812H0z"/>
    <mask id="fhzsmyksca" style="mask-type:alpha" maskUnits="userSpaceOnUse" x="0" y="0" width="375" height="812">
        <path fill="#32AAED" d="M0 0h375v812H0z"/>
    </mask>
    <g mask="url(#fhzsmyksca)">
        <g opacity=".2" fill="#fff">
            <path d="M187.906 812.704h-64.87v-38.951l32.435-8.688 32.435 8.688v38.951zM315.91 812.704h-44.164v-65.45L293.9 732.34l22.01 14.914v65.45zM104.791 717.426H65.985v95.278h38.806v-95.278zM271.746 812.704h-38.807v-95.278h14.335c13.467 0 24.472 11.004 24.472 24.471v70.807z" fill-opacity=".5"/>
            <path d="M213.246 786.495h-77.902v26.788h77.902v-26.788z"/>
            <path d="M205.427 761.879h-26.788v26.788h26.788v-26.788zM12.988 707H-50v105.559h62.988V707zM75.831 812.704H12.988v-44.888l62.843-24.182v69.07zM135.489 812.704h-36.78v-60.816l18.39-13.756 18.39 13.756v60.816zM290.714 812.704h-28.091V779.69l14.046-7.385 14.045 7.385v33.014zM339.946 727.562H300.85v-3.041l19.548-7.53 19.548 7.53v3.041zM242.496 725.824h-29.394v87.025h29.394v-87.025z"/>
            <path d="M237.138 707h-18.534v87.025h18.534V707zM493 758.983H339.512v101.36H493v-101.36z"/>
            <path d="M339.946 744.648H300.85v87.025h39.096v-87.025z"/>
            <path d="M312.724 727.562h-8.688v87.024h8.688v-87.024zM336.761 727.562h-8.688v87.024h8.688v-87.024z"/>
        </g>
        <path opacity=".5" d="M-116 378.5c22.333 13.667 87.663 33.026 101-55 12.5-82.5 74.685-95.6 123.5-109 51-14 91.5-76.5 41.5-123C90.472 36.139-4.5 141-68-17" stroke="#FDFDFD" stroke-dasharray="5 5"/>
        <rect x="120" y="-247" width="538" height="538" rx="269" fill="#fff" fill-opacity=".04"/>
        <rect x="202" y="-223" width="432" height="432" rx="216" fill="#fff" fill-opacity=".04"/>
        <rect x="276" y="-199" width="334" height="334" rx="167" fill="#fff" fill-opacity=".04"/>
    </g>
</svg>
