<svg width="24" height="24" viewBox="0 0 24 24" fill="none" xmlns="http://www.w3.org/2000/svg">
<g clip-path="url(#clip0_187_95)">
<path d="M10.5598 12.1646C13.9393 12.1644 15.1552 8.78067 15.4735 6.00114C15.8657 2.57706 14.2464 0 10.5598 0C6.87357 0 5.25354 2.57686 5.64597 6.00114C5.96459 8.78067 7.1802 12.1649 10.5598 12.1646Z" fill="#AD2666"/>
<path d="M17.9493 13.5731C18.058 13.5731 18.1661 13.5764 18.2733 13.5823C18.1125 13.3529 17.9264 13.1506 17.7085 12.9879C17.0592 12.5032 16.2181 12.3442 15.4746 12.0521C15.1127 11.9099 14.7886 11.7687 14.4844 11.6079C13.4576 12.734 12.1186 13.323 10.5593 13.3232C9.00049 13.3232 7.66158 12.7341 6.63488 11.6079C6.33064 11.7687 6.00649 11.9099 5.64464 12.0521C4.90115 12.3443 4.06017 12.5032 3.41076 12.9879C2.2877 13.8261 1.99747 15.7118 1.76943 16.9981C1.58123 18.0599 1.4548 19.1435 1.4179 20.222C1.38931 21.0574 1.80178 21.1746 2.50068 21.4267C3.37578 21.7424 4.27935 21.9767 5.189 22.1687C6.94574 22.5397 8.75656 22.8248 10.5596 22.8375C11.4332 22.8313 12.3086 22.7608 13.1789 22.648C12.5345 21.7144 12.1566 20.5835 12.1566 19.3658C12.1566 16.1717 14.7552 13.5731 17.9493 13.5731Z" fill="#FF8000"/>
<path d="M17.9491 14.7317C15.3898 14.7317 13.3149 16.8065 13.3149 19.3658C13.3149 21.9251 15.3898 24 17.9491 24C20.5084 24 22.5833 21.9251 22.5833 19.3658C22.5833 16.8065 20.5084 14.7317 17.9491 14.7317ZM19.9766 20.1609H18.7442V21.3932C18.7442 21.8323 18.3882 22.1883 17.9491 22.1883C17.51 22.1883 17.154 21.8323 17.154 21.3932V20.1609H15.9217C15.4825 20.1609 15.1265 19.8049 15.1265 19.3658C15.1265 18.9266 15.4825 18.5706 15.9217 18.5706H17.154V17.3383C17.154 16.8992 17.51 16.5432 17.9491 16.5432C18.3883 16.5432 18.7442 16.8992 18.7442 17.3383V18.5706H19.9766C20.4157 18.5706 20.7717 18.9266 20.7717 19.3658C20.7716 19.805 20.4157 20.1609 19.9766 20.1609Z" fill="#5B3364"/>
</g>
<defs>
<clipPath id="clip0_187_95">
<rect width="24" height="24" fill="white"/>
</clipPath>
</defs>
</svg>
