<svg width="18" height="18" viewBox="0 0 18 18" fill="none" xmlns="http://www.w3.org/2000/svg">
<path d="M17.7801 16.7205L12.6614 11.6018C13.6529 10.3771 14.2498 8.82086 14.2498 7.12589C14.2498 3.19743 11.0534 0.000946045 7.12491 0.000946045C3.19645 0.000946045 0 3.19739 0 7.12586C0 11.0543 3.19648 14.2508 7.12494 14.2508C8.81991 14.2508 10.3762 13.6538 11.6009 12.6623L16.7196 17.781C16.8658 17.9273 17.0578 18.0008 17.2498 18.0008C17.4419 18.0008 17.6339 17.9273 17.7801 17.781C18.0733 17.4878 18.0733 17.0138 17.7801 16.7205ZM7.12494 12.7508C4.02296 12.7508 1.5 10.2278 1.5 7.12586C1.5 4.02387 4.02296 1.50091 7.12494 1.50091C10.2269 1.50091 12.7499 4.02387 12.7499 7.12586C12.7499 10.2278 10.2269 12.7508 7.12494 12.7508Z" fill="#BBBBBB"/>
</svg>
