<svg width="20" height="20" viewBox="0 0 20 20" fill="none" xmlns="http://www.w3.org/2000/svg">
<path d="M9.80039 10.6209C9.86648 10.6233 9.93269 10.625 9.99953 10.625C10.0615 10.625 10.1231 10.6236 10.1846 10.6213C11.5836 10.6516 12.9594 11.0217 14.1751 11.6983C14.5521 11.9081 15.0279 11.7726 15.2377 11.3955C15.4475 11.0185 15.312 10.5428 14.935 10.3329C14.3756 10.0219 13.7879 9.7649 13.1798 9.56527C14.4734 8.59543 15.312 7.05004 15.312 5.3125C15.312 2.38313 12.9287 0 9.99953 0C7.07016 0 4.68703 2.38313 4.68703 5.3125C4.68703 7.05109 5.52656 8.59742 6.8216 9.56711C5.6352 9.95758 4.52191 10.565 3.5475 11.3664C1.76117 12.8359 0.519101 14.8854 0.050195 17.1376C-0.0967581 17.8433 0.0793356 18.5681 0.533125 19.1263C0.984687 19.6816 1.65434 20 2.37027 20H8.47609C8.90746 20 9.25734 19.6503 9.25734 19.2188C9.25734 18.7872 8.90746 18.4375 8.47609 18.4375H2.37027C2.03672 18.4375 1.83562 18.2513 1.74527 18.1404C1.58949 17.9487 1.52926 17.6994 1.57988 17.4561C2.39121 13.5591 5.83023 10.7132 9.80039 10.6209ZM6.24953 5.3125C6.24953 3.24477 7.93168 1.5625 9.99953 1.5625C12.0673 1.5625 13.7495 3.24477 13.7495 5.3125C13.7495 7.31797 12.1672 8.96055 10.1855 9.05793C10.1234 9.05672 10.0615 9.05594 9.99953 9.05594C9.93848 9.05594 9.87762 9.05684 9.81672 9.05789C7.83352 8.96242 6.24953 7.31906 6.24953 5.3125ZM19.9995 14.5245C20.0003 15.0464 19.7963 15.5368 19.4253 15.9058L17.9723 17.3508C17.8999 17.423 17.814 17.4802 17.7194 17.5192C17.6249 17.5583 17.5237 17.5783 17.4214 17.5781C17.3184 17.5782 17.2164 17.5579 17.1213 17.5184C17.0262 17.4788 16.9399 17.4208 16.8673 17.3477C16.5631 17.0418 16.5645 16.5472 16.8704 16.243L17.8444 15.2743H13.417C12.5448 15.2743 11.8355 15.9839 11.8355 16.8559C11.8355 17.728 12.5363 18.4375 13.398 18.4375C13.8293 18.4375 14.1792 18.7872 14.1792 19.2188C14.1792 19.6503 13.8293 20 13.398 20C12.5577 20 11.7703 19.672 11.1812 19.0761C10.5954 18.4837 10.273 17.6953 10.273 16.8559C10.273 15.1222 11.6833 13.7118 13.417 13.7118H17.7727L16.872 12.8212C16.5652 12.5177 16.5623 12.023 16.8658 11.7163C17.1692 11.4096 17.6639 11.4067 17.9707 11.7102L19.4215 13.1448C19.7936 13.5127 19.9987 14.0027 19.9995 14.5245Z" fill="#000080"/>
</svg>
